<?xml version="1.0" encoding="UTF-8"?>
<svg version="1.1" xmlns="http://www.w3.org/2000/svg" width="72" height="72">
<path d="M0 0 C23.76 0 47.52 0 72 0 C72 23.76 72 47.52 72 72 C48.24 72 24.48 72 0 72 C0 48.24 0 24.48 0 0 Z " fill="#21325B" transform="translate(0,0)"/>
<path d="M0 0 C7.26 0 14.52 0 22 0 C21.34 1.32 20.68 2.64 20 4 C17.0625 4.625 17.0625 4.625 14 5 C13.01 5.66 12.02 6.32 11 7 C10.01 7 9.02 7 8 7 C8.26676204 8.98491642 8.26676204 8.98491642 9 11 C9.99 11.33 10.98 11.66 12 12 C12.07078842 14.54838299 12.12380345 16.62858964 11.3125 19.0625 C10.7530398 21.163685 10.7530398 21.163685 12.4375 23.25 C13.2109375 24.11625 13.2109375 24.11625 14 25 C14.45375 24.175 14.9075 23.35 15.375 22.5 C16.179375 21.2625 16.179375 21.2625 17 20 C17.66 20 18.32 20 19 20 C18.79822665 22.90011553 18.56479333 25.79170839 18.3125 28.6875 C18.25900391 29.50412109 18.20550781 30.32074219 18.15039062 31.16210938 C17.62552838 36.79867352 16.47567763 39.21845008 12 43 C12 43.66 12 44.32 12 45 C13.52834853 46.23568605 15.05765382 47.47027491 16.59765625 48.69140625 C18.34023014 50.31748495 18.82474344 51.63403644 19 54 C19.99 54 20.98 54 22 54 C22 55.98 22 57.96 22 60 C23.8871875 59.505 23.8871875 59.505 25.8125 59 C34.08044639 57.300943 42.6043379 57.84484403 51 58 C50.88637738 56.5199159 50.75877092 55.04089926 50.625 53.5625 C50.55539063 52.73878906 50.48578125 51.91507813 50.4140625 51.06640625 C50.20910156 50.04353516 50.20910156 50.04353516 50 49 C49.01 48.505 49.01 48.505 48 48 C48.48210938 47.55269531 48.96421875 47.10539062 49.4609375 46.64453125 C54.30796815 42.04405045 54.30796815 42.04405045 57 36 C58.32 37.32 59.64 38.64 61 40 C61.99 39.34 62.98 38.68 64 38 C64.66 38.33 65.32 38.66 66 39 C66.07347656 38.07767578 66.07347656 38.07767578 66.1484375 37.13671875 C66.22320312 36.32847656 66.29796875 35.52023438 66.375 34.6875 C66.44460937 33.88699219 66.51421875 33.08648437 66.5859375 32.26171875 C67 30 67 30 69 27 C69.165 26.29875 69.33 25.5975 69.5 24.875 C69.665 24.25625 69.83 23.6375 70 23 C70.99 22.505 70.99 22.505 72 22 C72 38.5 72 55 72 72 C48.24 72 24.48 72 0 72 C0 48.24 0 24.48 0 0 Z " fill="#151920" transform="translate(0,0)"/>
<path d="M0 0 C-3.72927162 6.11600546 -8.23519126 11.14670363 -14.2109375 15.15234375 C-17.26386875 18.2675201 -17.26386875 18.2675201 -17.515625 22.25 C-17.45751779 23.83474213 -17.36809185 25.41859607 -17.25 27 C-16.69848322 36.9921863 -16.69848322 36.9921863 -19 41 C-20.875 41.5625 -20.875 41.5625 -23 42 C-25.22977996 43.97901574 -25.22977996 43.97901574 -27 46 C-28.485 45.505 -28.485 45.505 -30 45 C-28.47005208 43.76302083 -26.94010417 42.52604167 -25.41015625 41.2890625 C-23.86733563 40.0333609 -23.86733563 40.0333609 -23 38 C-23.66 38 -24.32 38 -25 38 C-25 38.66 -25 39.32 -25 40 C-26.32 40 -27.64 40 -29 40 C-29.66 38.02 -30.32 36.04 -31 34 C-31.969375 34.825 -32.93875 35.65 -33.9375 36.5 C-37 39 -37 39 -38 39 C-37.67 40.65 -37.34 42.3 -37 44 C-38.11375 44.144375 -39.2275 44.28875 -40.375 44.4375 C-43.82142047 44.78372035 -43.82142047 44.78372035 -46 46 C-48.125 45.0625 -48.125 45.0625 -50 44 C-49.7215625 42.824375 -49.7215625 42.824375 -49.4375 41.625 C-48.74037734 39.02910225 -48.74037734 39.02910225 -50 37 C-50.09657872 35.2104531 -50.12980468 33.41714466 -50.125 31.625 C-50.12757812 30.66851563 -50.13015625 29.71203125 -50.1328125 28.7265625 C-49.93627968 24.69185929 -49.09971683 21.47316175 -47 18 C-40.86532807 13.87089389 -35.48678487 13.48106595 -28.171875 13.2734375 C-25.14875564 13.01282376 -23.41784578 12.80762756 -21 11 C-20.33617203 9.09522974 -20.33617203 9.09522974 -20 7 C-15.81780835 -1.75590762 -8.68465326 -0.74949747 0 0 Z " fill="#3B9E85" transform="translate(71,0)"/>
<path d="M0 0 C11.55 0 23.1 0 35 0 C33.02 2.64 31.04 5.28 29 8 C28.67 8.99 28.34 9.98 28 11 C25.48509014 13.82176889 23.24767492 14.21904908 19.62890625 14.44140625 C17.94049459 14.49570027 16.25157034 14.53560805 14.5625 14.5625 C6.95391855 14.44389761 6.95391855 14.44389761 0 17 C-4.04669312 25.20387615 -3.45820407 34.25077559 -2 43 C-3.32 42.67 -4.64 42.34 -6 42 C-6.99 44.475 -6.99 44.475 -8 47 C-9.32 45.68 -10.64 44.36 -12 43 C-11.34 43 -10.68 43 -10 43 C-9.67 42.01 -9.34 41.02 -9 40 C-8.49597656 39.56429687 -7.99195313 39.12859375 -7.47265625 38.6796875 C-5.35094426 36.2596977 -5.5601001 34.29678334 -5.4375 31.125 C-5.26496146 26.95270428 -4.74947548 23.80809521 -3 20 C-3.433125 20.433125 -3.86625 20.86625 -4.3125 21.3125 C-6.65625 23.65625 -6.65625 23.65625 -9 26 C-11.29379749 22.55930376 -12 21.27709699 -12 17 C-11.34 17 -10.68 17 -10 17 C-10.50980331 13.22745547 -11.20700182 11.55012877 -14 9 C-14 8.34 -14 7.68 -14 7 C-10.54888911 5.48151121 -7.22424797 4.07059658 -3.625 2.9375 C-0.85679314 2.29017408 -0.85679314 2.29017408 0 0 Z " fill="#27313C" transform="translate(22,0)"/>
<path d="M0 0 C-3.7242488 6.10776803 -8.22168297 11.15004744 -14.203125 15.1328125 C-16.16398815 16.75256269 -16.90438928 17.58518538 -17.48095703 20.08666992 C-17.5902311 22.52144866 -17.52474315 24.8801337 -17.375 27.3125 C-17.34792969 28.14845703 -17.32085937 28.98441406 -17.29296875 29.84570312 C-17.22259563 31.89825247 -17.11498322 33.94946591 -17 36 C-17.66 35.01 -18.32 34.02 -19 33 C-19.66 34.32 -20.32 35.64 -21 37 C-21.06058594 36.31292969 -21.12117188 35.62585937 -21.18359375 34.91796875 C-21.30927734 33.56638672 -21.30927734 33.56638672 -21.4375 32.1875 C-21.51871094 31.29417969 -21.59992187 30.40085937 -21.68359375 29.48046875 C-21.93489767 26.87256441 -21.93489767 26.87256441 -23 24 C-24.423125 25.2375 -24.423125 25.2375 -25.875 26.5 C-28.75 29 -28.75 29 -31 29 C-30.67 27.35 -30.34 25.7 -30 24 C-29.01 24 -28.02 24 -27 24 C-26.67 22.68 -26.34 21.36 -26 20 C-28.31 19.67 -30.62 19.34 -33 19 C-33 19.33 -33 19.66 -33 20 C-35.97 20.66 -38.94 21.32 -42 22 C-42 21.34 -42 20.68 -42 20 C-42.66 19.67 -43.32 19.34 -44 19 C-42.36634782 16.54952173 -41.51697085 15.45489644 -39 14 C-35.40403116 13.47355356 -31.90968387 13.31193596 -28.27734375 13.23828125 C-25.18523155 13.01346737 -23.45808124 12.85682396 -21 11 C-20.33617203 9.09522974 -20.33617203 9.09522974 -20 7 C-15.81780835 -1.75590762 -8.68465326 -0.74949747 0 0 Z " fill="#72888E" transform="translate(71,0)"/>
<path d="M0 0 C-2.69648689 2.69648689 -5.66611962 4.14784424 -9 6 C-8.979375 6.804375 -8.95875 7.60875 -8.9375 8.4375 C-9 11 -9 11 -10 12 C-10.09938863 13.76853292 -10.12969223 15.54118275 -10.125 17.3125 C-10.12757812 18.27800781 -10.13015625 19.24351563 -10.1328125 20.23828125 C-10.11104029 22.93361288 -10.11104029 22.93361288 -9.3671875 25.16796875 C-9.24601562 25.77253906 -9.12484375 26.37710938 -9 27 C-9.66 27.99 -10.32 28.98 -11 30 C-8.64632287 30.6878236 -8.64632287 30.6878236 -6 31 C-5.01 30.34 -4.02 29.68 -3 29 C-1.68 29 -0.36 29 1 29 C0.67 27.02 0.34 25.04 0 23 C0.99 23.33 1.98 23.66 3 24 C4.67580052 23.02792965 4.67580052 23.02792965 6.1875 21.5625 C7.115625 20.716875 8.04375 19.87125 9 19 C9.33 21.31 9.66 23.62 10 26 C11.32 26 12.64 26 14 26 C14 25.34 14 24.68 14 24 C14.66 24 15.32 24 16 24 C14.71480435 26.86697492 13.42870746 28.97607712 11 31 C10.34 31 9.68 31 9 31 C9 31.66 9 32.32 9 33 C7.86111328 32.98259766 7.86111328 32.98259766 6.69921875 32.96484375 C5.70535156 32.95582031 4.71148437 32.94679687 3.6875 32.9375 C2.70136719 32.92589844 1.71523438 32.91429687 0.69921875 32.90234375 C-2.09963849 32.87670138 -2.09963849 32.87670138 -5 34 C-5.86625 34.144375 -6.7325 34.28875 -7.625 34.4375 C-8.40875 34.623125 -9.1925 34.80875 -10 35 C-10.33 35.66 -10.66 36.32 -11 37 C-9.35 37 -7.7 37 -6 37 C-6 37.66 -6 38.32 -6 39 C-6.66 39 -7.32 39 -8 39 C-8 40.98 -8 42.96 -8 45 C-8.66 45 -9.32 45 -10 45 C-10 43.35 -10 41.7 -10 40 C-10.99 40 -11.98 40 -13 40 C-13.268125 39.38125 -13.53625 38.7625 -13.8125 38.125 C-14.95556848 35.7004767 -14.95556848 35.7004767 -18 34 C-18.1875 31.375 -18.1875 31.375 -18 29 C-16.68 28.34 -15.36 27.68 -14 27 C-13.67 27.33 -13.34 27.66 -13 28 C-13.165 27.175 -13.33 26.35 -13.5 25.5 C-14.62058503 17.65590479 -14.24598588 10.33980389 -11 3 C-7.37015635 0.23816244 -4.51309174 -0.39821398 0 0 Z " fill="#354687" transform="translate(32,14)"/>
<path d="M0 0 C0 1.32 0 2.64 0 4 C0.48384119 6.37921908 1.07045408 8.71926433 1.66015625 11.07421875 C1.77230469 11.70972656 1.88445313 12.34523438 2 13 C1 14 1 14 -2.90234375 14.0625 C-4.58076731 14.04500766 -6.25915638 14.02396508 -7.9375 14 C-14.70712139 13.94432981 -21.27603384 14.11816837 -28 15 C-27.34 14.67 -26.68 14.34 -26 14 C-26 12.02 -26 10.04 -26 8 C-25.34 8 -24.68 8 -24 8 C-24 7.34 -24 6.68 -24 6 C-25.65 6 -27.3 6 -29 6 C-28.34 4.68 -27.68 3.36 -27 2 C-23.87709365 2.48578543 -21.00419641 2.9986012 -18 4 C-12.15618943 4.49523818 -8.74725187 3.79125207 -3.6640625 0.875 C-2 0 -2 0 0 0 Z " fill="#122031" transform="translate(50,45)"/>
<path d="M0 0 C7.26 0 14.52 0 22 0 C21.34 1.32 20.68 2.64 20 4 C17.0625 4.625 17.0625 4.625 14 5 C13.01 5.66 12.02 6.32 11 7 C10.01 7 9.02 7 8 7 C8.45375 7.845625 8.9075 8.69125 9.375 9.5625 C10 13 10 13 8.9375 14.921875 C5.98813072 18.49061183 4.65066724 19.83733319 0 21 C0 14.07 0 7.14 0 0 Z " fill="#10131A" transform="translate(0,0)"/>
<path d="M0 0 C0.33 0 0.66 0 1 0 C1.05380578 2.79192205 1.09357669 5.5828141 1.125 8.375 C1.15013672 9.56609375 1.15013672 9.56609375 1.17578125 10.78125 C1.19335473 12.85492015 1.10335168 14.92883241 1 17 C0.34 17.66 -0.32 18.32 -1 19 C-1.2165625 20.11375 -1.2165625 20.11375 -1.4375 21.25 C-2.10433551 24.51008471 -3.43682918 27.07755021 -5 30 C-7.64 29.67 -10.28 29.34 -13 29 C-13.84982162 26.61536115 -14.15423342 25.41533765 -13.2590332 23.00463867 C-12.86031006 22.3160376 -12.46158691 21.62743652 -12.05078125 20.91796875 C-11.61443359 20.15033203 -11.17808594 19.38269531 -10.72851562 18.59179688 C-10.02758789 17.40166992 -10.02758789 17.40166992 -9.3125 16.1875 C-8.86455078 15.40568359 -8.41660156 14.62386719 -7.95507812 13.81835938 C-6.64709708 11.53938803 -5.32395811 9.26971441 -4 7 C-2.66211571 4.66923387 -1.33100142 2.33470741 0 0 Z " fill="#3E434D" transform="translate(71,5)"/>
<path d="M0 0 C0.99773438 0.03738281 1.99546875 0.07476562 3.0234375 0.11328125 C4.61285156 0.16548828 4.61285156 0.16548828 6.234375 0.21875 C10.31727301 0.48590259 14.34248809 0.884988 18.3984375 1.42578125 C19.46544169 5.40687253 19.92125745 9.33566654 20.3984375 13.42578125 C19.4084375 14.08578125 18.4184375 14.74578125 17.3984375 15.42578125 C16.7384375 13.44578125 16.0784375 11.46578125 15.3984375 9.42578125 C14.4496875 10.25078125 13.5009375 11.07578125 12.5234375 11.92578125 C9.6484375 14.42578125 9.6484375 14.42578125 7.3984375 14.42578125 C7.7284375 12.77578125 8.0584375 11.12578125 8.3984375 9.42578125 C9.3884375 9.42578125 10.3784375 9.42578125 11.3984375 9.42578125 C11.7284375 8.10578125 12.0584375 6.78578125 12.3984375 5.42578125 C10.0884375 5.09578125 7.7784375 4.76578125 5.3984375 4.42578125 C5.3984375 4.75578125 5.3984375 5.08578125 5.3984375 5.42578125 C2.4284375 6.08578125 -0.5415625 6.74578125 -3.6015625 7.42578125 C-3.6015625 6.76578125 -3.6015625 6.10578125 -3.6015625 5.42578125 C-4.2615625 5.09578125 -4.9215625 4.76578125 -5.6015625 4.42578125 C-3.96753516 1.60791778 -3.29322367 0.53898105 0 0 Z " fill="#7BBCB6" transform="translate(32.6015625,14.57421875)"/>
<path d="M0 0 C-1.61494521 3.48392175 -3.2436123 6.96125099 -4.875 10.4375 C-5.56529297 11.92733398 -5.56529297 11.92733398 -6.26953125 13.44726562 C-6.71425781 14.39150391 -7.15898437 15.33574219 -7.6171875 16.30859375 C-8.02565918 17.18314209 -8.43413086 18.05769043 -8.85498047 18.95874023 C-10 21 -10 21 -12 22 C-14.29379749 18.55930376 -15 17.27709699 -15 13 C-14.34 13 -13.68 13 -13 13 C-13.66 10.36 -14.32 7.72 -15 5 C-4.18918919 -2.09459459 -4.18918919 -2.09459459 0 0 Z " fill="#474E59" transform="translate(25,4)"/>
<path d="M0 0 C0.66 0.33 1.32 0.66 2 1 C2 1.66 2 2.32 2 3 C2.66 3.33 3.32 3.66 4 4 C4.33 3.67 4.66 3.34 5 3 C5 2.67 5 2.34 5 2 C6.41623216 1.94552953 7.83308191 1.90699492 9.25 1.875 C10.03890625 1.85179688 10.8278125 1.82859375 11.640625 1.8046875 C14.20731941 2.0171622 15.7916067 2.71345895 18 4 C17.6875 5.9375 17.6875 5.9375 17 8 C16.01 8.33 15.02 8.66 14 9 C13.26676204 11.01508358 13.26676204 11.01508358 13 13 C13.66 13.33 14.32 13.66 15 14 C13.68 14.99 12.36 15.98 11 17 C10.87625 16.360625 10.7525 15.72125 10.625 15.0625 C10.41875 14.381875 10.2125 13.70125 10 13 C9.34 12.67 8.68 12.34 8 12 C7.67 12.99 7.34 13.98 7 15 C6.34 14.67 5.68 14.34 5 14 C5 12.35 5 10.7 5 9 C4.01 9 3.02 9 2 9 C1.67 7.68 1.34 6.36 1 5 C-0.65 6.32 -2.3 7.64 -4 9 C-4.33 7.35 -4.66 5.7 -5 4 C-3.35 2.68 -1.7 1.36 0 0 Z " fill="#699F97" transform="translate(27,16)"/>
<path d="M0 0 C0.33 0 0.66 0 1 0 C0.57753439 6.33698415 -1.69607035 10.69470374 -4.875 16.125 C-5.54595703 17.30255859 -5.54595703 17.30255859 -6.23046875 18.50390625 C-7.092193 20.0112882 -7.96129571 21.51448394 -8.83886719 23.01269531 C-9.81333448 24.6805178 -10.75796065 26.36572633 -11.6953125 28.0546875 C-12.12585937 28.69664063 -12.55640625 29.33859375 -13 30 C-13.66 30 -14.32 30 -15 30 C-15.78405613 25.0897495 -16.63264957 19.75485074 -13.98486328 15.28710938 C-11.80605302 12.5136295 -9.35266546 10.07980775 -6.796875 7.65625 C-4.25690989 5.24399263 -2.16536165 2.74146704 0 0 Z " fill="#212830" transform="translate(71,0)"/>
<path d="M0 0 C1.28317892 3.84953676 1.06643637 6.94738135 1 11 C1 7.95799954 1.55486342 5.00467194 2 2 C2.33 2 2.66 2 3 2 C3 4.64 3 7.28 3 10 C4.258125 10 5.51625 10 6.8125 10 C10.20833333 10 13.60416667 10 17 10 C12.125 14 12.125 14 11 14 C11.33 15.65 11.66 17.3 12 19 C10.329375 19.2165625 10.329375 19.2165625 8.625 19.4375 C5.17857953 19.78372035 5.17857953 19.78372035 3 21 C0.875 20.0625 0.875 20.0625 -1 19 C-0.814375 18.21625 -0.62875 17.4325 -0.4375 16.625 C0.25962266 14.02910225 0.25962266 14.02910225 -1 12 C-1.09584979 10.1478437 -1.12983606 8.29212847 -1.125 6.4375 C-1.12757812 5.44621094 -1.13015625 4.45492188 -1.1328125 3.43359375 C-1 1 -1 1 0 0 Z " fill="#4C76A2" transform="translate(22,25)"/>
<path d="M0 0 C0.33 2.31 0.66 4.62 1 7 C2.32 7 3.64 7 5 7 C5 6.34 5 5.68 5 5 C5.66 5 6.32 5 7 5 C5.48735523 8.85036851 3.55272291 10.88348422 0 13 C-3.06544144 13.49025513 -5.95321795 13.63331986 -9 13 C-10.7734375 11.47265625 -10.7734375 11.47265625 -12 10 C-10.68 10 -9.36 10 -8 10 C-8.33 8.02 -8.66 6.04 -9 4 C-8.01 4.33 -7.02 4.66 -6 5 C-5.195625 4.175 -4.39125 3.35 -3.5625 2.5 C-1 0 -1 0 0 0 Z " fill="#273043" transform="translate(41,33)"/>
<path d="M0 0 C0.66 1.32 1.32 2.64 2 4 C2.66 3.34 3.32 2.68 4 2 C4.08096803 3.45742463 4.13917774 4.91612807 4.1875 6.375 C4.22230469 7.18710937 4.25710937 7.99921875 4.29296875 8.8359375 C4.19628906 9.55007812 4.09960938 10.26421875 4 11 C1 13 1 13 -1 13 C-2.37310707 14.29233607 -3.71034824 15.62437146 -5 17 C-5.99 16.67 -6.98 16.34 -8 16 C-6.47005208 14.76302083 -4.94010417 13.52604167 -3.41015625 12.2890625 C-1.86733563 11.0333609 -1.86733563 11.0333609 -1 9 C-1.66 9 -2.32 9 -3 9 C-3 9.66 -3 10.32 -3 11 C-4.32 11 -5.64 11 -7 11 C-8.39431504 8.21136993 -8.25660094 6.07921132 -8 3 C-7.01 2.34 -6.02 1.68 -5 1 C-4.01 1.33 -3.02 1.66 -2 2 C-1.3125 4.0625 -1.3125 4.0625 -1 6 C-0.67 4.02 -0.34 2.04 0 0 Z " fill="#2E4850" transform="translate(49,29)"/>
<path d="M0 0 C-3.625 5.75 -3.625 5.75 -7 8 C-7 7.01 -7 6.02 -7 5 C-9.74603467 4.49615665 -9.74603467 4.49615665 -13 5 C-14.78042556 6.42935573 -16.21452455 7.9588027 -17.703125 9.6875 C-18.13109375 10.120625 -18.5590625 10.55375 -19 11 C-19.66 11 -20.32 11 -21 11 C-20.19398236 7.08258093 -18.84152074 4.44163143 -16.23046875 1.41796875 C-11.48880063 -1.59643673 -5.39098864 -0.4652497 0 0 Z " fill="#6F767F" transform="translate(71,0)"/>
<path d="M0 0 C-2.69648689 2.69648689 -5.66611962 4.14784424 -9 6 C-8.979375 6.804375 -8.95875 7.60875 -8.9375 8.4375 C-9 11 -9 11 -10 12 C-10.09938863 13.76853292 -10.12969223 15.54118275 -10.125 17.3125 C-10.12757812 18.27800781 -10.13015625 19.24351563 -10.1328125 20.23828125 C-10.01628167 22.66143705 -9.69241648 24.68644969 -9 27 C-9.99 27 -10.98 27 -12 27 C-15.55290474 19.89419053 -14.20105773 12.70360228 -12.046875 5.3671875 C-11 3 -11 3 -8.125 0.8125 C-5.2373645 0.06171477 -2.96179439 -0.2613348 0 0 Z " fill="#305078" transform="translate(32,14)"/>
<path d="M0 0 C1.22589844 0.01353516 1.22589844 0.01353516 2.4765625 0.02734375 C3.41628906 0.04474609 3.41628906 0.04474609 4.375 0.0625 C3.46873216 1.3614839 2.54950463 2.65143167 1.625 3.9375 C1.11453125 4.65679688 0.6040625 5.37609375 0.078125 6.1171875 C-1.70003547 8.14820565 -3.15201607 9.04105012 -5.625 10.0625 C-7.25 7.8125 -7.25 7.8125 -8.625 5.0625 C-7.9375 2.8125 -7.9375 2.8125 -6.625 1.0625 C-4.21954362 -0.14022819 -2.67503047 -0.03821472 0 0 Z " fill="#262C36" transform="translate(52.625,-0.0625)"/>
<path d="M0 0 C1.00496852 3.01490557 1.10335303 5.04181692 1.0625 8.1875 C1.05347656 9.08855469 1.04445313 9.98960938 1.03515625 10.91796875 C1.02355469 11.60503906 1.01195313 12.29210938 1 13 C-1.97 13 -4.94 13 -8 13 C-4 2 -4 2 0 0 Z " fill="#455059" transform="translate(65,19)"/>
<path d="M0 0 C0.66 0.99 1.32 1.98 2 3 C4.05925139 3.72382467 4.05925139 3.72382467 6 4 C5.67 6.64 5.34 9.28 5 12 C3.35 12 1.7 12 0 12 C-0.33 10.35 -0.66 8.7 -1 7 C-0.67 9.97 -0.34 12.94 0 16 C-3 13 -3 13 -3.375 9.125 C-3.25078689 5.38480528 -2.27325123 3.03100164 0 0 Z " fill="#34556F" transform="translate(25,23)"/>
<path d="M0 0 C0.66 0.28875 1.32 0.5775 2 0.875 C5.62499465 2.23437299 9.23346693 3.10624639 13 4 C13 4.33 13 4.66 13 5 C10.36 5.66 7.72 6.32 5 7 C4.67 8.65 4.34 10.3 4 12 C2.35 12.33 0.7 12.66 -1 13 C-0.34 12.67 0.32 12.34 1 12 C1 10.02 1 8.04 1 6 C1.66 6 2.32 6 3 6 C3 5.34 3 4.68 3 4 C1.35 4 -0.3 4 -2 4 C-1.34 2.68 -0.68 1.36 0 0 Z " fill="#1E2641" transform="translate(23,47)"/>
<path d="M0 0 C0.33 0.66 0.66 1.32 1 2 C0.67 2.99 0.34 3.98 0 5 C-0.17190054 10.15701618 0.15280366 14.91682196 1 20 C-0.32 19.67 -1.64 19.34 -3 19 C-3.99 21.475 -3.99 21.475 -5 24 C-6.32 22.68 -7.64 21.36 -9 20 C-8.34 20 -7.68 20 -7 20 C-6.67 19.01 -6.34 18.02 -6 17 C-5.49597656 16.56816406 -4.99195313 16.13632812 -4.47265625 15.69140625 C-2.32664772 13.22662723 -2.55863706 11.1534936 -2.4375 7.9375 C-2.20833333 2.20833333 -2.20833333 2.20833333 0 0 Z " fill="#1E3155" transform="translate(19,23)"/>
<path d="M0 0 C1.32 0.66 2.64 1.32 4 2 C3.67 3.32 3.34 4.64 3 6 C4.65 6 6.3 6 8 6 C8 6.66 8 7.32 8 8 C7.34 8 6.68 8 6 8 C6 9.98 6 11.96 6 14 C5.34 14 4.68 14 4 14 C4 12.35 4 10.7 4 9 C3.01 9 2.02 9 1 9 C-0.8125 6.75 -0.8125 6.75 -2 4 C-1.1875 1.6875 -1.1875 1.6875 0 0 Z " fill="#69707A" transform="translate(18,45)"/>
<path d="M0 0 C-0.33 1.65 -0.66 3.3 -1 5 C-2.32 5 -3.64 5 -5 5 C-5 5.66 -5 6.32 -5 7 C-6.65 7 -8.3 7 -10 7 C-10 5.35 -10 3.7 -10 2 C-6.5980513 -0.09350689 -3.94727588 -0.17942163 0 0 Z " fill="#404757" transform="translate(37,52)"/>
<path d="M0 0 C2.4375 0.75 2.4375 0.75 5 2 C5.8125 4.125 5.8125 4.125 6 6 C5.01 6 4.02 6 3 6 C1.30911778 7.97956942 -0.35830472 9.97945196 -2 12 C-2.66 12 -3.32 12 -4 12 C-3.67 10.35 -3.34 8.7 -3 7 C-2.01 7 -1.02 7 0 7 C0.33 5.68 0.66 4.36 1 3 C0.01 2.67 -0.98 2.34 -2 2 C-1.34 1.34 -0.68 0.68 0 0 Z " fill="#A8E0CA" transform="translate(44,17)"/>
<path d="M0 0 C0.33 0 0.66 0 1 0 C1 2.31 1 4.62 1 7 C-0.32 6.67 -1.64 6.34 -3 6 C-3.99 7.485 -3.99 7.485 -5 9 C-9 4.375 -9 4.375 -9 1 C-6.03 1.33 -3.06 1.66 0 2 C0 1.34 0 0.68 0 0 Z " fill="#242C36" transform="translate(66,33)"/>
<path d="M0 0 C-0.4979837 3.73487777 -0.87491756 5.81237635 -3 9 C-3.66 9 -4.32 9 -5 9 C-5 8.34 -5 7.68 -5 7 C-5.99 6.67 -6.98 6.34 -8 6 C-7.75 4.125 -7.75 4.125 -7 2 C-4.41847698 0.27898465 -3.15081975 0 0 0 Z " fill="#5D6671" transform="translate(21,9)"/>
<path d="M0 0 C0.66 0 1.32 0 2 0 C2.33 1.32 2.66 2.64 3 4 C3.99 4 4.98 4 6 4 C6.33 5.65 6.66 7.3 7 9 C8.32 8.34 9.64 7.68 11 7 C11.33 8.65 11.66 10.3 12 12 C9.625 12.125 9.625 12.125 7 12 C6.34 11.34 5.68 10.68 5 10 C5 8.68 5 7.36 5 6 C3.35 6 1.7 6 0 6 C-0.38218767 4.34385343 -0.71395102 2.67542976 -1 1 C-0.67 0.67 -0.34 0.34 0 0 Z " fill="#457989" transform="translate(26,21)"/>
<path d="M0 0 C0.99 0.33 1.98 0.66 3 1 C3 1.66 3 2.32 3 3 C3.99 2.67 4.98 2.34 6 2 C6 4 6 4 4.390625 5.61328125 C1.32564292 7.39117118 -0.73208801 7.30221452 -4.25 7.1875 C-5.86648437 7.14689453 -5.86648437 7.14689453 -7.515625 7.10546875 C-8.74539062 7.05326172 -8.74539062 7.05326172 -10 7 C-10 6.34 -10 5.68 -10 5 C-7.03 5 -4.06 5 -1 5 C-0.67 3.35 -0.34 1.7 0 0 Z " fill="#405E65" transform="translate(44,7)"/>
<path d="M0 0 C2.375 -0.125 2.375 -0.125 5 0 C5.66 0.66 6.32 1.32 7 2 C6.625 4.625 6.625 4.625 6 7 C4.02 7 2.04 7 0 7 C0 4.69 0 2.38 0 0 Z " fill="#317C6C" transform="translate(38,52)"/>
<path d="M0 0 C4.05606165 0.46800711 7.46588679 0.87953208 11 3 C8.14521674 4.90318884 6.58058692 5.4619099 3.3125 6.125 C2.50425781 6.29257812 1.69601563 6.46015625 0.86328125 6.6328125 C0.24839844 6.75398438 -0.36648437 6.87515625 -1 7 C-1 6.34 -1 5.68 -1 5 C-1.66 4.67 -2.32 4.34 -3 4 C-2.01 2.68 -1.02 1.36 0 0 Z " fill="#86C2C5" transform="translate(30,15)"/>
<path d="M0 0 C2.0625 0.4375 2.0625 0.4375 4 1 C0.92680205 4.17233336 -1.28514601 5.31714516 -5.625 5.4375 C-8.4854797 5.43261864 -9.58021599 5.36153204 -11.7734375 3.47265625 C-12.17820312 2.98667969 -12.58296875 2.50070313 -13 2 C-12.14535156 1.93941406 -11.29070313 1.87882812 -10.41015625 1.81640625 C-8.75306641 1.69072266 -8.75306641 1.69072266 -7.0625 1.5625 C-5.96035156 1.48128906 -4.85820313 1.40007813 -3.72265625 1.31640625 C-1.08890097 1.29581916 -1.08890097 1.29581916 0 0 Z " fill="#24395B" transform="translate(42,41)"/>
<path d="M0 0 C0.66 0.33 1.32 0.66 2 1 C1.814375 1.7425 1.62875 2.485 1.4375 3.25 C0.80670205 5.90192141 0.80670205 5.90192141 1.625 8 C2 10 2 10 0.625 12.75 C0.08875 13.4925 -0.4475 14.235 -1 15 C-1.33 15 -1.66 15 -2 15 C-2.05386629 12.87527424 -2.09273071 10.75016348 -2.125 8.625 C-2.14820313 7.44164062 -2.17140625 6.25828125 -2.1953125 5.0390625 C-2 2 -2 2 0 0 Z " fill="#0E1118" transform="translate(2,45)"/>
<path d="M0 0 C1 3 1 3 0.875 6.8125 C0.81510504 10.87787009 1.83817045 13.50781381 4 17 C4.66 17.66 5.32 18.32 6 19 C5.67 19.66 5.34 20.32 5 21 C3.02 20.34 1.04 19.68 -1 19 C-0.814375 18.21625 -0.62875 17.4325 -0.4375 16.625 C0.25962266 14.02910225 0.25962266 14.02910225 -1 12 C-1.09584979 10.1478437 -1.12983606 8.29212847 -1.125 6.4375 C-1.12757812 5.44621094 -1.13015625 4.45492188 -1.1328125 3.43359375 C-1 1 -1 1 0 0 Z " fill="#4A78B1" transform="translate(22,25)"/>
<path d="M0 0 C0 3 0 3 -1 6 C-1.38503552 8.72897438 -1.7398891 11.45128163 -2.0625 14.1875 C-2.15337891 14.93708984 -2.24425781 15.68667969 -2.33789062 16.45898438 C-2.5613731 18.30565535 -2.78105513 20.15278554 -3 22 C-3.33 22 -3.66 22 -4 22 C-4.30389967 19.27092082 -4.5687825 16.54705508 -4.8125 13.8125 C-4.90208984 13.04357422 -4.99167969 12.27464844 -5.08398438 11.48242188 C-5.4495368 6.99959476 -5.48187059 5.59080209 -2.51171875 1.94921875 C-1.68285156 1.30597656 -0.85398437 0.66273437 0 0 Z " fill="#2E4C51" transform="translate(58,13)"/>
<path d="M0 0 C0.33 0 0.66 0 1 0 C1.08096803 1.45742463 1.13917774 2.91612807 1.1875 4.375 C1.22230469 5.18710937 1.25710937 5.99921875 1.29296875 6.8359375 C1.19628906 7.55007812 1.09960938 8.26421875 1 9 C-2 11 -2 11 -4 11 C-5.37310707 12.29233607 -6.71034824 13.62437146 -8 15 C-8.99 14.67 -9.98 14.34 -11 14 C-10.31164063 13.48953125 -10.31164063 13.48953125 -9.609375 12.96875 C-4.76228486 9.13995611 -2.44205673 5.66557161 0 0 Z " fill="#2E6071" transform="translate(52,31)"/>
<path d="M0 0 C1.32 0.33 2.64 0.66 4 1 C3.360625 1.2475 2.72125 1.495 2.0625 1.75 C-0.17301987 2.77924751 -0.17301987 2.77924751 -0.5 4.875 C-0.665 5.57625 -0.83 6.2775 -1 7 C-2.9375 9.25 -2.9375 9.25 -5 11 C-5.66 11 -6.32 11 -7 11 C-6.40716379 7.60807637 -5.23256811 5.7892243 -2.9375 3.25 C-2.38964844 2.63640625 -1.84179688 2.0228125 -1.27734375 1.390625 C-0.85582031 0.93171875 -0.43429688 0.4728125 0 0 Z " fill="#636E76" transform="translate(57,0)"/>
<path d="M0 0 C2.25998595 3.59462331 2.20868087 6.56595675 2.125 10.75 C2.10695313 11.92046875 2.08890625 13.0909375 2.0703125 14.296875 C2.03550781 15.63492188 2.03550781 15.63492188 2 17 C1.34 16.01 0.68 15.02 0 14 C-0.66 15.32 -1.32 16.64 -2 18 C-2.25 11.375 -2.25 11.375 0 8 C-0.28241883 5.6599583 -0.61250787 3.32495277 -1 1 C-0.67 0.67 -0.34 0.34 0 0 Z " fill="#3F8A7F" transform="translate(52,19)"/>
<path d="M0 0 C0.125 2.375 0.125 2.375 0 5 C-0.66 5.66 -1.32 6.32 -2 7 C-2.165 7.845625 -2.33 8.69125 -2.5 9.5625 C-2.665 10.366875 -2.83 11.17125 -3 12 C-3.99 12.495 -3.99 12.495 -5 13 C-6.14085323 7.82228147 -6.14085323 7.82228147 -6 5 C-2.04166667 0 -2.04166667 0 0 0 Z " fill="#2A2E39" transform="translate(72,17)"/>
<path d="M0 0 C4.62 0.99 9.24 1.98 14 3 C13.67 5.97 13.34 8.94 13 12 C10.03 11.505 10.03 11.505 7 11 C8.32 10.67 9.64 10.34 11 10 C10.67 9.01 10.34 8.02 10 7 C10.33 6.34 10.66 5.68 11 5 C10.28972656 4.80664062 9.57945313 4.61328125 8.84765625 4.4140625 C7.46900391 4.02347656 7.46900391 4.02347656 6.0625 3.625 C5.14597656 3.36976562 4.22945312 3.11453125 3.28515625 2.8515625 C1 2 1 2 0 0 Z " fill="#192551" transform="translate(25,47)"/>
<path d="M0 0 C0.66 0.33 1.32 0.66 2 1 C2 1.66 2 2.32 2 3 C2.66 3.33 3.32 3.66 4 4 C3.67 5.32 3.34 6.64 3 8 C2.34 7.67 1.68 7.34 1 7 C1 6.34 1 5.68 1 5 C-0.65 6.32 -2.3 7.64 -4 9 C-4.33 7.35 -4.66 5.7 -5 4 C-3.35 2.68 -1.7 1.36 0 0 Z " fill="#538B9F" transform="translate(27,16)"/>
<path d="M0 0 C0.33 2.31 0.66 4.62 1 7 C2.32 7 3.64 7 5 7 C5 6.34 5 5.68 5 5 C5.66 5 6.32 5 7 5 C6.67 5.99 6.34 6.98 6 8 C2.4375 9.1875 2.4375 9.1875 -1 10 C-1.28875 9.195625 -1.5775 8.39125 -1.875 7.5625 C-2.73262568 4.8673532 -2.73262568 4.8673532 -5 4 C-1.125 0 -1.125 0 0 0 Z " fill="#243B49" transform="translate(41,33)"/>
<path d="M0 0 C1.98 0 3.96 0 6 0 C5.484375 0.4125 4.96875 0.825 4.4375 1.25 C3.963125 1.8275 3.48875 2.405 3 3 C3.22757731 5.16299211 3.22757731 5.16299211 4 7 C2.02 7.99 2.02 7.99 0 9 C-0.66 7.02 -1.32 5.04 -2 3 C-1.34 3 -0.68 3 0 3 C0 2.01 0 1.02 0 0 Z " fill="#3B434D" transform="translate(42,0)"/>
<path d="M0 0 C1.09658936 3.28976808 0.79953138 4.71303767 0 8 C-1.65 8 -3.3 8 -5 8 C-5 5.69 -5 3.38 -5 1 C-4.01 1.33 -3.02 1.66 -2 2 C-1.34 1.34 -0.68 0.68 0 0 Z " fill="#334A61" transform="translate(30,27)"/>
<path d="M0 0 C1.32 0 2.64 0 4 0 C4 1.98 4 3.96 4 6 C3.01 5.67 2.02 5.34 1 5 C0.67 5.99 0.34 6.98 0 8 C-0.66 7.67 -1.32 7.34 -2 7 C-1.125 2.25 -1.125 2.25 0 0 Z " fill="#3DA2C6" transform="translate(34,23)"/>
<path d="M0 0 C0.66 0.33 1.32 0.66 2 1 C0.35 2.32 -1.3 3.64 -3 5 C-3.99 4.34 -4.98 3.68 -6 3 C-6.33 4.32 -6.66 5.64 -7 7 C-8.32 7 -9.64 7 -11 7 C-9.99489025 3.98467075 -9.53844009 2.81317149 -7 1 C-5.32457024 1.28604898 -3.65614657 1.61781233 -2 2 C-1.34 1.34 -0.68 0.68 0 0 Z " fill="#2E5293" transform="translate(37,34)"/>
<path d="M0 0 C2.10884548 4.21769095 3.71636257 7.45599446 2.390625 12.1640625 C1.65325522 14.13270068 0.83211299 16.06949787 0 18 C-0.33 18 -0.66 18 -1 18 C-0.505 9.09 -0.505 9.09 0 0 Z " fill="#223C46" transform="translate(55,24)"/>
<path d="M0 0 C0.33 0 0.66 0 1 0 C1.44041451 5.28497409 1.44041451 5.28497409 1 8 C-1.5 10.5 -1.5 10.5 -4 12 C-2.28571429 2.28571429 -2.28571429 2.28571429 0 0 Z " fill="#1E222C" transform="translate(71,22)"/>
<path d="M0 0 C-0.99 1.485 -0.99 1.485 -2 3 C-4.3306218 3.35179197 -6.66435067 3.68330179 -9 4 C-11.85248773 5.4421908 -11.85248773 5.4421908 -14 7 C-14 6.01 -14 5.02 -14 4 C-3.25581395 -1.62790698 -3.25581395 -1.62790698 0 0 Z " fill="#363A45" transform="translate(25,4)"/>
<path d="M0 0 C-2.72301487 2.72301487 -5.59908228 4.17807979 -9 6 C-9.66 6 -10.32 6 -11 6 C-11.33 6.99 -11.66 7.98 -12 9 C-11.875 6.1875 -11.875 6.1875 -11 3 C-7.31304792 0.48616903 -4.43862896 -0.39164373 0 0 Z " fill="#33556A" transform="translate(32,14)"/>
<path d="M0 0 C1.32 0.66 2.64 1.32 4 2 C4 2.66 4 3.32 4 4 C2.37373596 5.38232443 0.7074998 6.71937515 -1 8 C-2 7 -2 7 -2.1875 4.5625 C-2 2 -2 2 0 0 Z " fill="#3E4658" transform="translate(16,41)"/>
<path d="M0 0 C0.66 0.33 1.32 0.66 2 1 C2 2.65 2 4.3 2 6 C1.34 6 0.68 6 0 6 C0 6.66 0 7.32 0 8 C-1.32 8.33 -2.64 8.66 -4 9 C-3.35455571 5.51460083 -1.89865603 2.97180943 0 0 Z " fill="#242833" transform="translate(10,11)"/>
<path d="M0 0 C0.33 0 0.66 0 1 0 C1.25 3.3125 1.25 3.3125 1 7 C-0.75 9 -0.75 9 -3 10 C-5.25 9.6875 -5.25 9.6875 -7 9 C-6.030625 8.2575 -5.06125 7.515 -4.0625 6.75 C-1.97612639 5.02690085 -1.09887521 4.26131306 -0.125 1.6875 C-0.08375 1.130625 -0.0425 0.57375 0 0 Z " fill="#234458" transform="translate(53,36)"/>
<path d="M0 0 C1.485 0.99 1.485 0.99 3 2 C4.65549531 2.38499891 6.3222433 2.72793135 8 3 C6.68 4.32 5.36 5.64 4 7 C2.35 6.01 0.7 5.02 -1 4 C-0.67 2.68 -0.34 1.36 0 0 Z " fill="#37989E" transform="translate(30,30)"/>
<path d="M0 0 C1.65 0.33 3.3 0.66 5 1 C4.67 2.32 4.34 3.64 4 5 C2.35 4.67 0.7 4.34 -1 4 C-0.67 2.68 -0.34 1.36 0 0 Z " fill="#2E8072" transform="translate(47,54)"/>
<path d="M0 0 C2.62187494 1.04874998 3.79371361 1.64931313 5.25 4.125 C5.4975 4.74375 5.745 5.3625 6 6 C5.01 6.99 4.02 7.98 3 9 C0.70620251 5.55930376 0 4.27709699 0 0 Z " fill="#363B49" transform="translate(10,17)"/>
<path d="M0 0 C0.33 1.32 0.66 2.64 1 4 C1.66 4 2.32 4 3 4 C2.67 6.31 2.34 8.62 2 11 C1.67 11 1.34 11 1 11 C1 9.02 1 7.04 1 5 C-0.32 4.67 -1.64 4.34 -3 4 C-2.01 2.68 -1.02 1.36 0 0 Z " fill="#467C72" transform="translate(46,26)"/>
<path d="M0 0 C0 0.66 0 1.32 0 2 C-0.62648438 2.26554688 -1.25296875 2.53109375 -1.8984375 2.8046875 C-2.71570312 3.15789063 -3.53296875 3.51109375 -4.375 3.875 C-5.18710938 4.22304687 -5.99921875 4.57109375 -6.8359375 4.9296875 C-9.13802299 5.92446067 -9.13802299 5.92446067 -11 8 C-11.33 6.68 -11.66 5.36 -12 4 C-10.88625 3.525625 -9.7725 3.05125 -8.625 2.5625 C-2.68 0 -2.68 0 0 0 Z " fill="#242732" transform="translate(20,3)"/>
<path d="M0 0 C2.475 0.495 2.475 0.495 5 1 C5 2.32 5 3.64 5 5 C3.35 5 1.7 5 0 5 C0 3.35 0 1.7 0 0 Z " fill="#8C9197" transform="translate(27,54)"/>
<path d="M0 0 C2.35953094 2.35953094 2.49141413 3.77895617 3 7 C1.02 7 -0.96 7 -3 7 C-3.33 6.01 -3.66 5.02 -4 4 C-3.01 4 -2.02 4 -1 4 C-0.67 2.68 -0.34 1.36 0 0 Z " fill="#57658B" transform="translate(31,37)"/>
<path d="M0 0 C0.99 0.33 1.98 0.66 3 1 C4.1875 4.0625 4.1875 4.0625 5 7 C3.68 7 2.36 7 1 7 C0.67 4.69 0.34 2.38 0 0 Z " fill="#2A8977" transform="translate(41,33)"/>
<path d="M0 0 C1.32 0.66 2.64 1.32 4 2 C3.01 2.33 2.02 2.66 1 3 C-0.20882096 5.00016466 -0.20882096 5.00016466 -1 7 C-1 6.34 -1 5.68 -1 5 C-1.99 4.67 -2.98 4.34 -4 4 C-2.68 2.68 -1.36 1.36 0 0 Z " fill="#7096A3" transform="translate(33,20)"/>
<path d="M0 0 C-1.33333333 2.66666667 -2.66666667 5.33333333 -4 8 C-4.99 6.68 -5.98 5.36 -7 4 C-6.34 4 -5.68 4 -5 4 C-4.67 3.01 -4.34 2.02 -4 1 C-2 0 -2 0 0 0 Z " fill="#2E3441" transform="translate(17,39)"/>
<path d="M0 0 C0.66 0.33 1.32 0.66 2 1 C-0.97 3.97 -3.94 6.94 -7 10 C-7.99 9.67 -8.98 9.34 -10 9 C-6.7 6.03 -3.4 3.06 0 0 Z " fill="#728188" transform="translate(58,4)"/>
<path d="M0 0 C0 2.31 0 4.62 0 7 C-1.65 7.33 -3.3 7.66 -5 8 C-4.34 7.67 -3.68 7.34 -3 7 C-3 5.02 -3 3.04 -3 1 C-1 0 -1 0 0 0 Z " fill="#3E444E" transform="translate(27,52)"/>
<path d="M0 0 C0.99 0.33 1.98 0.66 3 1 C3 2.32 3 3.64 3 5 C0.625 5.1875 0.625 5.1875 -2 5 C-2.66 4.01 -3.32 3.02 -4 2 C-3.01 2 -2.02 2 -1 2 C-0.67 1.34 -0.34 0.68 0 0 Z " fill="#3B6771" transform="translate(35,28)"/>
<path d="M0 0 C0.66 0.33 1.32 0.66 2 1 C2 2.65 2 4.3 2 6 C0.35 5.67 -1.3 5.34 -3 5 C-1.125 1.125 -1.125 1.125 0 0 Z " fill="#77818A" transform="translate(64,24)"/>
<path d="M0 0 C0.66 0 1.32 0 2 0 C1.34 4.62 0.68 9.24 0 14 C-0.33 14 -0.66 14 -1 14 C-1.22226864 12.23086176 -1.42733873 10.45955629 -1.625 8.6875 C-1.74101562 7.70136719 -1.85703125 6.71523438 -1.9765625 5.69921875 C-2 3 -2 3 0 0 Z " fill="#0F1A2C" transform="translate(17,20)"/>
<path d="M0 0 C0.33 0.99 0.66 1.98 1 3 C-1.31 3.66 -3.62 4.32 -6 5 C-6.66 3.68 -7.32 2.36 -8 1 C-5.36 1.33 -2.72 1.66 0 2 C0 1.34 0 0.68 0 0 Z " fill="#2E3841" transform="translate(66,33)"/>
<path d="M0 0 C0.66 0.33 1.32 0.66 2 1 C2 1.66 2 2.32 2 3 C2.66 3 3.32 3 4 3 C4.33 2.34 4.66 1.68 5 1 C5.33 2.65 5.66 4.3 6 6 C5.01 6.66 4.02 7.32 3 8 C2.566875 6.5459375 2.566875 6.5459375 2.125 5.0625 C1.35785318 1.89335797 1.35785318 1.89335797 -1 1 C-0.67 0.67 -0.34 0.34 0 0 Z " fill="#66BAA2" transform="translate(47,22)"/>
<path d="M0 0 C1.32 0.66 2.64 1.32 4 2 C3.34 3.32 2.68 4.64 2 6 C1.67 5.34 1.34 4.68 1 4 C0.34 4 -0.32 4 -1 4 C-0.67 2.68 -0.34 1.36 0 0 Z " fill="#343944" transform="translate(5,46)"/>
<path d="M0 0 C0.33 0.66 0.66 1.32 1 2 C1.66 2 2.32 2 3 2 C2.67 3.32 2.34 4.64 2 6 C1.34 6 0.68 6 0 6 C0 5.34 0 4.68 0 4 C-0.66 4 -1.32 4 -2 4 C-2 3.01 -2 2.02 -2 1 C-1.34 0.67 -0.68 0.34 0 0 Z " fill="#757E89" transform="translate(16,12)"/>
<path d="M0 0 C0.66 0 1.32 0 2 0 C2 1.32 2 2.64 2 4 C2.66 4.33 3.32 4.66 4 5 C2.68 5.99 1.36 6.98 0 8 C0 5.36 0 2.72 0 0 Z " fill="#60BA9B" transform="translate(38,25)"/>
<path d="M0 0 C5.75 0.75 5.75 0.75 8 3 C7.01 3 6.02 3 5 3 C5 3.66 5 4.32 5 5 C4.34 5 3.68 5 3 5 C1.375 2.5 1.375 2.5 0 0 Z " fill="#507C7F" transform="translate(35,20)"/>
<path d="M0 0 C0.33 0 0.66 0 1 0 C1 2.31 1 4.62 1 7 C-1.97 6.505 -1.97 6.505 -5 6 C-3.68 5.67 -2.36 5.34 -1 5 C-1.33 4.01 -1.66 3.02 -2 2 C-1.34 1.34 -0.68 0.68 0 0 Z " fill="#202E37" transform="translate(37,52)"/>
<path d="M0 0 C3.63 0 7.26 0 11 0 C11 1.32 11 2.64 11 4 C10.34 3.34 9.68 2.68 9 2 C6.79749008 1.53993654 6.79749008 1.53993654 4.375 1.375 C3.14910156 1.26285156 3.14910156 1.26285156 1.8984375 1.1484375 C1.27195313 1.09945313 0.64546875 1.05046875 0 1 C0 0.67 0 0.34 0 0 Z " fill="#6A9C98" transform="translate(42,15)"/>
</svg>
